<?xml version="1.0" encoding="UTF-8"?>
<svg version="1.1" xmlns="http://www.w3.org/2000/svg" width="1280" height="783">
<path d="M0 0 C3.96610366 0.0031477 7.93144933 -0.0203571 11.89746094 -0.0456543 C105.24892103 -0.27710479 189.42831158 33.25275781 257.54980469 96.61254883 C259.02108459 97.97854912 260.50011913 99.3165979 262.03495789 100.61102295 C268.64411444 106.20050995 274.67187582 112.37458443 280.76768494 118.50917053 C282.81799916 120.57238695 284.8715421 122.63234195 286.92590332 124.69152832 C292.0247381 129.80364832 297.11808476 134.92122492 302.21160889 140.03863525 C306.5267756 144.37361328 310.8440397 148.70648225 315.16404724 153.03663635 C317.17561531 155.05463101 319.18411939 157.07564042 321.19250488 159.09680176 C327.12416776 165.05219231 333.05395172 170.90928058 339.49902344 176.31567383 C340.57200936 177.26317576 341.64270768 178.21328183 342.70996094 179.16723633 C356.48718201 191.31049543 371.1585947 201.90127373 387.49902344 210.31567383 C388.16192383 210.6646875 388.82482422 211.01370117 389.5078125 211.37329102 C430.54915021 232.79217097 481.01850665 234.35672795 524.77978516 221.19116211 C569.35868435 206.83850162 606.8645544 174.56045107 635.49902344 138.31567383 C637.01949793 136.41955269 638.54031737 134.52370809 640.06152344 132.62817383 C641.20799043 131.19117914 642.35407504 129.75387877 643.49902344 128.31567383 C644.77745729 131.93059265 644.20762102 134.27711776 643.16308594 137.91723633 C642.84573486 139.03340332 642.52838379 140.14957031 642.20141602 141.29956055 C641.66810669 143.10191162 641.66810669 143.10191162 641.12402344 144.94067383 C640.75752686 146.19251465 640.39103027 147.44435547 640.01342773 148.73413086 C624.6493431 200.75328909 601.59698923 250.49936646 564.73339844 290.85864258 C563.26777268 292.47031846 561.81908795 294.09759964 560.38964844 295.74145508 C550.29204498 307.29473494 538.774172 317.15686592 526.49902344 326.31567383 C525.84417969 326.80567871 525.18933594 327.29568359 524.51464844 327.80053711 C468.2099141 369.58584926 397.48668161 385.04470959 328.39453125 384.70678711 C324.49931867 384.69067505 320.60514307 384.70677915 316.70996094 384.72583008 C237.79637242 384.78984667 160.25986869 361.48530027 98.49902344 311.31567383 C97.149375 310.23479492 97.149375 310.23479492 95.77246094 309.13208008 C92.99275081 306.88508097 90.24150383 304.60795225 87.49902344 302.31567383 C86.98291504 301.88593262 86.46680664 301.45619141 85.93505859 301.01342773 C64.865367 283.41655482 45.77682301 263.69324432 26.43652344 244.25317383 C21.78519538 239.57805882 17.13211745 234.90471045 12.47482491 230.23553658 C10.63606123 228.39037581 8.80037147 226.54219623 6.96482849 224.6938324 C1.31259273 219.01678301 -4.37136769 213.48324929 -10.50097656 208.31567383 C-11.57379401 207.36798114 -12.6444851 206.41786922 -13.71191406 205.46411133 C-27.48913514 193.32085223 -42.16054782 182.73007393 -58.50097656 174.31567383 C-59.16387695 173.96666016 -59.82677734 173.61764648 -60.50976562 173.25805664 C-101.55110334 151.83917669 -152.02045977 150.2746197 -195.78173828 163.44018555 C-233.39034875 175.54868592 -270.35331982 201.73847271 -294.93847656 232.69067383 C-297.75439808 236.1902571 -300.61405404 239.60833402 -303.62597656 242.94067383 C-307.48471299 247.22557593 -311.0232769 251.71858959 -314.50097656 256.31567383 C-315.77941042 252.70075501 -315.20957415 250.35422989 -314.16503906 246.71411133 C-313.84768799 245.59794434 -313.53033691 244.48177734 -313.20336914 243.33178711 C-312.67005981 241.52943604 -312.67005981 241.52943604 -312.12597656 239.69067383 C-311.75947998 238.43883301 -311.3929834 237.18699219 -311.01538086 235.8972168 C-295.6199892 183.77206039 -272.50858994 134.12784684 -235.62597656 93.65942383 C-233.67602932 91.50874672 -231.77071527 89.32742412 -229.87597656 87.12817383 C-224.20363825 80.65290178 -218.149252 75.08011022 -211.43066406 69.69067383 C-209.51500973 68.13771671 -207.62288244 66.55515926 -205.75878906 64.94067383 C-192.6210591 53.58618145 -177.86558787 44.34769274 -162.50097656 36.31567383 C-161.65873535 35.86756348 -160.81649414 35.41945313 -159.94873047 34.95776367 C-125.42809587 16.78415326 -87.09892041 6.92959306 -48.50097656 2.31567383 C-47.77162903 2.22847076 -47.04228149 2.1412677 -46.29083252 2.05142212 C-30.86740288 0.27296913 -15.51512752 -0.02561191 0 0 Z " fill="#37BCF8" transform="translate(315.5009765625,383.684326171875)"/>
<path d="M0 0 C3.96610366 0.0031477 7.93144933 -0.0203571 11.89746094 -0.0456543 C105.24892103 -0.27710479 189.42831158 33.25275781 257.54980469 96.61254883 C259.02108459 97.97854912 260.50011913 99.3165979 262.03495789 100.61102295 C268.64411444 106.20050995 274.67187582 112.37458443 280.76768494 118.50917053 C282.81799916 120.57238695 284.8715421 122.63234195 286.92590332 124.69152832 C292.0247381 129.80364832 297.11808476 134.92122492 302.21160889 140.03863525 C306.5267756 144.37361328 310.8440397 148.70648225 315.16404724 153.03663635 C317.17561531 155.05463101 319.18411939 157.07564042 321.19250488 159.09680176 C327.12416776 165.05219231 333.05395172 170.90928058 339.49902344 176.31567383 C340.57200936 177.26317576 341.64270768 178.21328183 342.70996094 179.16723633 C356.48718201 191.31049543 371.1585947 201.90127373 387.49902344 210.31567383 C388.16192383 210.6646875 388.82482422 211.01370117 389.5078125 211.37329102 C430.54915021 232.79217097 481.01850665 234.35672795 524.77978516 221.19116211 C569.35868435 206.83850162 606.8645544 174.56045107 635.49902344 138.31567383 C637.01949793 136.41955269 638.54031737 134.52370809 640.06152344 132.62817383 C641.20799043 131.19117914 642.35407504 129.75387877 643.49902344 128.31567383 C644.77745729 131.93059265 644.20762102 134.27711776 643.16308594 137.91723633 C642.84573486 139.03340332 642.52838379 140.14957031 642.20141602 141.29956055 C641.66810669 143.10191162 641.66810669 143.10191162 641.12402344 144.94067383 C640.75752686 146.19251465 640.39103027 147.44435547 640.01342773 148.73413086 C624.6493431 200.75328909 601.59698923 250.49936646 564.73339844 290.85864258 C563.26777268 292.47031846 561.81908795 294.09759964 560.38964844 295.74145508 C550.29204498 307.29473494 538.774172 317.15686592 526.49902344 326.31567383 C525.84417969 326.80567871 525.18933594 327.29568359 524.51464844 327.80053711 C468.2099141 369.58584926 397.48668161 385.04470959 328.39453125 384.70678711 C324.49931867 384.69067505 320.60514307 384.70677915 316.70996094 384.72583008 C237.79637242 384.78984667 160.25986869 361.48530027 98.49902344 311.31567383 C97.149375 310.23479492 97.149375 310.23479492 95.77246094 309.13208008 C92.99275081 306.88508097 90.24150383 304.60795225 87.49902344 302.31567383 C86.98291504 301.88593262 86.46680664 301.45619141 85.93505859 301.01342773 C64.865367 283.41655482 45.77682301 263.69324432 26.43652344 244.25317383 C21.78519538 239.57805882 17.13211745 234.90471045 12.47482491 230.23553658 C10.63606123 228.39037581 8.80037147 226.54219623 6.96482849 224.6938324 C1.31259273 219.01678301 -4.37136769 213.48324929 -10.50097656 208.31567383 C-11.57379401 207.36798114 -12.6444851 206.41786922 -13.71191406 205.46411133 C-27.48913514 193.32085223 -42.16054782 182.73007393 -58.50097656 174.31567383 C-59.16387695 173.96666016 -59.82677734 173.61764648 -60.50976562 173.25805664 C-101.55110334 151.83917669 -152.02045977 150.2746197 -195.78173828 163.44018555 C-233.39034875 175.54868592 -270.35331982 201.73847271 -294.93847656 232.69067383 C-297.75439808 236.1902571 -300.61405404 239.60833402 -303.62597656 242.94067383 C-307.48471299 247.22557593 -311.0232769 251.71858959 -314.50097656 256.31567383 C-315.77941042 252.70075501 -315.20957415 250.35422989 -314.16503906 246.71411133 C-313.84768799 245.59794434 -313.53033691 244.48177734 -313.20336914 243.33178711 C-312.67005981 241.52943604 -312.67005981 241.52943604 -312.12597656 239.69067383 C-311.75947998 238.43883301 -311.3929834 237.18699219 -311.01538086 235.8972168 C-295.6199892 183.77206039 -272.50858994 134.12784684 -235.62597656 93.65942383 C-233.67602932 91.50874672 -231.77071527 89.32742412 -229.87597656 87.12817383 C-224.20363825 80.65290178 -218.149252 75.08011022 -211.43066406 69.69067383 C-209.51500973 68.13771671 -207.62288244 66.55515926 -205.75878906 64.94067383 C-192.6210591 53.58618145 -177.86558787 44.34769274 -162.50097656 36.31567383 C-161.65873535 35.86756348 -160.81649414 35.41945312 -159.94873047 34.95776367 C-125.42809587 16.78415326 -87.09892041 6.92959306 -48.50097656 2.31567383 C-47.77162903 2.22847076 -47.04228149 2.1412677 -46.29083252 2.05142212 C-30.86740288 0.27296913 -15.51512752 -0.02561191 0 0 Z " fill="#37BCF8" transform="translate(635.5009765625,-0.315673828125)"/>
</svg>
